<svg xmlns="http://www.w3.org/2000/svg" id="Layer_1" data-name="Layer 1" viewBox="0 0 16 16"><defs><style>.cls-1{fill:#ff6c0e}.cls-2{fill:#53575a}</style></defs><path d="M3.51,9.3H2.58L1.26,5.89h1l.85,2.47.85-2.47h.92Z" class="cls-1"/><path d="M9.23,9.3H8.37V7.89a.43.43,0,0,0-.44-.48.49.49,0,0,0-.37.2.65.65,0,0,0-.12.4V9.3H6.57V7.89a.42.42,0,0,0-.43-.48.53.53,0,0,0-.38.2.65.65,0,0,0-.12.4V9.3H4.78V6.67h.86V7.1a.94.94,0,0,1,.86-.46.87.87,0,0,1,.87.59,1,1,0,0,1,.92-.59A.94.94,0,0,1,9,6.9a1,1,0,0,1,.27.75Z" class="cls-1"/><path d="M10.67,9.33a1.71,1.71,0,0,1-1.25-.51l.14-.25A1.57,1.57,0,0,0,10.68,9,1.79,1.79,0,0,0,11,9a1,1,0,0,0,.28-.12.5.5,0,0,0,.19-.19.45.45,0,0,0,.07-.27.55.55,0,0,0-.27-.5,3.6,3.6,0,0,0-.63-.25,3.61,3.61,0,0,1-.47-.16.94.94,0,0,1-.45-.33.86.86,0,0,1-.13-.48.79.79,0,0,1,.09-.38A1,1,0,0,1,10,6.07a1.11,1.11,0,0,1,.37-.15,2,2,0,0,1,.43,0,2,2,0,0,1,1,.29l-.13.26a2.14,2.14,0,0,0-.44-.2,1.84,1.84,0,0,0-.47-.06,1.13,1.13,0,0,0-.54.11.46.46,0,0,0-.26.35v.14a.45.45,0,0,0,.14.31.87.87,0,0,0,.37.23l.28.1.28.09.28.11a2.1,2.1,0,0,1,.26.13.83.83,0,0,1,.34.69.79.79,0,0,1-.09.38.77.77,0,0,1-.23.28,1.21,1.21,0,0,1-.38.18A1.61,1.61,0,0,1,10.67,9.33Z" class="cls-2"/><path d="M13.4,9.31a1.18,1.18,0,0,1-.63-.16,1,1,0,0,1-.44-.44A1.34,1.34,0,0,1,12.17,8a1.4,1.4,0,0,1,.15-.66,1.24,1.24,0,0,1,.42-.46,1.29,1.29,0,0,1,.66-.16,1.07,1.07,0,0,1,.64.17,1,1,0,0,1,.4.46V5.69h.29V9.3h-.29V8.69a1.06,1.06,0,0,1-.4.46A1.15,1.15,0,0,1,13.4,9.31Zm0-.25a1.06,1.06,0,0,0,.5-.12.93.93,0,0,0,.36-.35A1.1,1.1,0,0,0,14.44,8a1.13,1.13,0,0,0-.12-.51A1,1,0,0,0,14,7.14,1,1,0,0,0,13.45,7a.95.95,0,0,0-.87.49,1.08,1.08,0,0,0-.13.54,1.26,1.26,0,0,0,.06.38.92.92,0,0,0,.18.32A.87.87,0,0,0,13,9,1,1,0,0,0,13.45,9.06Z" class="cls-2"/><rect width="12.15" height=".23" x="2.58" y="10" class="cls-1"/></svg>